<svg width="69" height="69" viewBox="0 0 69 69" fill="none" xmlns="http://www.w3.org/2000/svg">
<g clip-path="url(#clip0_19_117)">
<path d="M51.7499 25.9009C42.2308 25.9009 34.4884 35.5609 34.4884 47.4375C34.4884 59.3141 42.2308 68.9741 51.7499 68.9741C61.269 68.9741 69.0114 59.3141 69.0114 47.4375C69.0114 35.5609 61.269 25.9009 51.7499 25.9009ZM37.3634 47.4375C37.3634 37.6309 43.2255 29.5665 50.643 28.8305C50.9507 29.2186 56.025 35.8771 50.4705 46.7877C45.7958 55.959 47.7939 62.675 49.3838 65.8461C42.5729 64.377 37.3634 56.6835 37.3634 47.4375ZM52.8568 66.0445C52.5492 65.6563 47.4748 58.9978 53.0293 48.0872C57.704 38.916 55.7059 32.2 54.116 29.0289C60.9269 30.498 66.1364 38.1915 66.1364 47.4375C66.1364 57.2441 60.2743 65.3085 52.8568 66.0445ZM36.0697 4.17735C29.3364 -2.5559 16.7037 -0.888399 7.91191 7.91198C-0.879837 16.7066 -2.55596 29.3365 4.18016 36.0726C6.96604 38.8585 10.7582 40.2068 14.8723 40.2068C20.7057 40.2068 27.183 37.4986 32.3379 32.3409C41.1297 23.5462 42.8058 10.9164 36.0697 4.18023V4.17735ZM9.94454 9.9446C14.5532 5.3331 20.2945 2.89223 25.3603 2.89223C28.3244 2.89223 31.0585 3.72885 33.1975 5.45673C33.1228 5.99723 31.7399 14.5762 19.6534 18.7651C9.44141 22.3042 5.92816 28.8017 4.75516 32.223C0.988913 26.3091 3.03016 16.8532 9.94166 9.9446H9.94454ZM30.3053 30.3054C22.9999 37.6136 12.8512 39.4795 7.04941 34.7932C7.12416 34.2614 8.50129 25.6737 20.5935 21.4848C30.8055 17.9457 34.3188 11.4482 35.4918 8.02698C39.258 13.9409 37.2168 23.3967 30.3053 30.3054Z" fill="#DAD1C8"/>
</g>
<defs>
<clipPath id="clip0_19_117">
<rect width="69" height="69" fill="white"/>
</clipPath>
</defs>
</svg>
