<svg xmlns="http://www.w3.org/2000/svg" xmlns:xlink="http://www.w3.org/1999/xlink" viewBox="0 0 280.86 102.74"><defs><style>.cls-1{fill:none;}.cls-2{font-size:53.39px;font-family:MermaidSwashCaps-Bold, Mermaid Swash Caps;font-weight:700;}.cls-2,.cls-4{fill:#f2f2f2;}.cls-3{clip-path:url(#clip-path);}</style><clipPath id="clip-path" transform="translate(-0.06)"><rect class="cls-1" y="10.77" width="92" height="92"/></clipPath></defs><g id="Camada_2" data-name="Camada 2"><g id="Camada_1-2" data-name="Camada 1"><text class="cls-2" transform="translate(95.83 44.72)">Cafezito</text><g class="cls-3"><path class="cls-4" d="M69,45.31C56.31,45.31,46,58.19,46,74s10.33,28.72,23,28.72S92,89.86,92,74,81.69,45.31,69,45.31ZM49.82,74c0-13.07,7.81-23.83,17.7-24.81.41.52,7.18,9.4-.23,23.95-6.23,12.22-3.56,21.18-1.44,25.41C56.76,96.61,49.82,86.35,49.82,74ZM70.48,98.83c-.41-.52-7.18-9.39.23-23.94,6.23-12.23,3.56-21.18,1.44-25.41,9.09,2,16,12.21,16,24.54C88.18,87.1,80.37,97.85,70.48,98.83ZM48.09,16.34c-9-9-25.82-6.75-37.54,5s-14,28.57-5,37.55a19.77,19.77,0,0,0,14.26,5.51c7.78,0,16.41-3.61,23.29-10.49,11.72-11.72,14-28.56,5-37.54ZM13.26,24c6.14-6.15,13.8-9.4,20.55-9.4a16.33,16.33,0,0,1,10.45,3.42c-.1.72-1.94,12.16-18.06,17.74-13.61,4.72-18.3,13.38-19.86,18C1.32,45.85,4,33.24,13.26,24ZM40.41,51.18c-9.74,9.74-23.27,12.23-31,6,.1-.71,1.94-12.16,18.06-17.74,13.61-4.72,18.3-13.38,19.86-18C52.34,29.36,49.62,42,40.41,51.18Z" transform="translate(-0.06)"/></g></g></g></svg>