<svg xmlns="http://www.w3.org/2000/svg" xmlns:xlink="http://www.w3.org/1999/xlink" viewBox="0 0 280.86 102.9"><defs><style>.cls-1{fill:none;}.cls-2{clip-path:url(#clip-path);}.cls-3,.cls-4{fill:#261308;}.cls-4{font-size:53.39px;font-family:MermaidSwashCaps-Bold, Mermaid Swash Caps;font-weight:700;}</style><clipPath id="clip-path" transform="translate(-0.06)"><rect class="cls-1" y="10.93" width="92" height="92"/></clipPath></defs><g id="Camada_2" data-name="Camada 2"><g id="Camada_1-2" data-name="Camada 1"><g class="cls-2"><path class="cls-3" d="M69,45.47c-12.69,0-23,12.88-23,28.71S56.31,102.9,69,102.9,92,90,92,74.18,81.69,45.47,69,45.47ZM49.82,74.18c0-13.07,7.81-23.82,17.7-24.81.41.52,7.18,9.4-.23,23.95-6.23,12.23-3.56,21.18-1.44,25.41C56.76,96.77,49.82,86.51,49.82,74.18ZM70.48,99c-.41-.51-7.18-9.39.23-23.94,6.23-12.23,3.56-21.18,1.44-25.41,9.09,2,16,12.22,16,24.54C88.18,87.26,80.37,98,70.48,99ZM48.09,16.5c-9-9-25.82-6.75-37.54,5s-14,28.57-5,37.55a19.73,19.73,0,0,0,14.26,5.51c7.78,0,16.41-3.61,23.29-10.48,11.72-11.73,14-28.57,5-37.55ZM13.26,24.19c6.14-6.15,13.8-9.4,20.55-9.4a16.39,16.39,0,0,1,10.45,3.42c-.1.72-1.94,12.16-18.06,17.74C12.59,40.67,7.9,49.34,6.34,53.9,1.32,46,4,33.4,13.26,24.19ZM40.41,51.34c-9.74,9.75-23.27,12.23-31,6,.1-.7,1.94-12.15,18.06-17.74,13.61-4.72,18.3-13.38,19.86-17.94C52.34,29.52,49.62,42.13,40.41,51.34Z" transform="translate(-0.06)"/></g><text class="cls-4" transform="translate(95.83 44.72)">Cafezito</text></g></g></svg>